<svg width="131" height="131" viewBox="0 0 131 131" fill="none" xmlns="http://www.w3.org/2000/svg">
<g clip-path="url(#clip0_5_2)">
<path d="M131 65.5C131 86.2557 121.346 104.757 106.282 116.757C95.0938 125.673 80.9186 131 65.5 131C50.0814 131 35.9062 125.673 24.7176 116.757C9.65401 104.757 0 86.2557 0 65.5C0 29.3257 29.3257 0 65.5 0C101.674 0 131 29.3257 131 65.5Z" fill="#2D303E"/>
<path d="M65.5 78C78.4787 78 89 67.4787 89 54.5C89 41.5213 78.4787 31 65.5 31C52.5213 31 42 41.5213 42 54.5C42 67.4787 52.5213 78 65.5 78Z" fill="#CBCBCB"/>
<path d="M106.282 116.757C95.0938 125.673 80.9186 131 65.5 131C50.0814 131 35.9061 125.673 24.7175 116.757C30.014 99.2542 46.2688 86.5121 65.5 86.5121C84.7312 86.5121 100.986 99.2542 106.282 116.757Z" fill="#CBCBCB"/>
</g>
<defs>
<clipPath id="clip0_5_2">
<rect width="131" height="131" fill="white"/>
</clipPath>
</defs>
</svg>